#!OML:ASF F:\VICON\USERDATA\INSTALL\rory3\rory3.ASF
:FULLY-SPECIFIED
:DEGREES
351
root -5.98109 17.0915 19.7131 561.226 -22.4573 191.304
lowerback -5.78548 5.48307 -0.531347
upperback -12.8251 6.08422 1.17172
thorax -10.6607 2.51003 1.44469
lowerneck -14.479 -1.56761 -1.84416
upperneck 23.2471 -4.65057 8.18322
head 10.0338 -1.70335 2.5318
rclavicle 1.55052e-014 -4.21423e-014
rhumerus 135.111 -61.7837 216.487
rradius 11.083
rwrist 102.439
rhand 5.10843 5.40231
rfingers 7.12502
rthumb 30.4734 -22.0982
lclavicle 1.55052e-014 -4.21423e-014
lhumerus -14.9089 17.0146 -7.03679
lradius 22.2598
lwrist -27.5685
lhand 12.392 24.376
lfingers 7.12502
lthumb 37.3914 50.3383
rfemur 5.45449 6.86397 19.1164
rtibia 10.3789
rfoot -38.6747 -34.687
rtoes 59.9597
lfemur -49.2 16.9657 -25.5214
ltibia 38.3377
lfoot -40.795 28.4274
ltoes 23.8694
352
root -5.95228 17.0683 19.7521 561.288 -21.9963 191.56
lowerback -5.88056 5.32636 -0.537415
upperback -12.7457 5.87776 1.36899
thorax -10.529 2.41873 1.677
lowerneck -15.0178 -1.5254 -2.54022
upperneck 23.3544 -4.44453 8.38161
head 10.1804 -1.62186 2.75062
rclavicle -5.38209e-014 -1.23246e-014
rhumerus 129.344 -62.3241 224.237
rradius 10.5398
rwrist 97.7755
rhand 5.46396 4.84318
rfingers 7.12502
rthumb 30.8124 -22.5939
lclavicle -5.38209e-014 -1.23246e-014
lhumerus -14.6915 16.4339 -8.10831
lradius 22.4692
lwrist -26.6931
lhand 11.3114 24.4962
lfingers 7.12502
lthumb 36.3691 50.7211
rfemur 5.93019 6.40425 19.9863
rtibia 10.289
rfoot -36.7124 -34.9955
rtoes 59.336
lfemur -50.0247 17.3571 -25.4474
ltibia 39.1309
lfoot -40.8214 28.5544
ltoes 23.3257
353
root -5.93382 17.0572 19.8378 562.929 -19.823 192.687
lowerback -7.21113 6.09045 -0.0156293
upperback -13.3211 6.69318 1.29401
thorax -10.3829 2.68218 1.3941
lowerneck -15.227 -1.59806 -2.62642
upperneck 23.232 -4.45606 8.25727
head 10.1756 -1.63718 2.71797
rclavicle 1.02449e-013 1.35174e-014
rhumerus 124.568 -62.6705 230.896
rradius 10.5643
rwrist 94.1229
rhand 5.66309 4.84227
rfingers 7.12502
rthumb 31.0022 -22.5588
lclavicle 1.02449e-013 1.35174e-014
lhumerus -14.0066 15.6263 -8.9617
lradius 22.7602
lwrist -25.512
lhand 10.0873 25.3505
lfingers 7.12502
lthumb 35.2092 51.8574
rfemur 3.93035 8.76976 20.491
rtibia 9.8516
rfoot -33.1244 -38.3753
rtoes 57.6867
lfemur -53.1897 18.7512 -25.7385
ltibia 39.9161
lfoot -41.256 29.3941
ltoes 23.0196
354
root -5.88997 17.0279 19.8615 563.073 -19.399 192.55
lowerback -7.22631 6.00529 -0.51116
upperback -13.4071 6.55974 1.16695
thorax -10.5196 2.6514 1.52837
lowerneck -15.1861 -1.6751 -2.56646
upperneck 23.0982 -4.52214 8.1141
head 10.1188 -1.67885 2.64602
rclavicle -7.62091e-014 -1.27222e-014
rhumerus 121.265 -62.7193 235.852
rradius 11.0025
rwrist 91.7347
rhand 6.19303 5.71895
rfingers 7.12502
rthumb 31.5072 -21.5846
lclavicle -7.62091e-014 -1.27222e-014
lhumerus -12.8628 15.7597 -9.80881
lradius 22.874
lwrist -25.2383
lhand 8.95653 25.821
lfingers 7.12502
lthumb 34.136 52.5745
rfemur 4.70702 9.02844 21.246
rtibia 9.52034
rfoot -32.3042 -38.2811
rtoes 57.3319
lfemur -54.0346 19.5601 -26.3002
ltibia 40.6509
lfoot -40.4863 29.5105
ltoes 22.1906
355
root -5.84659 16.9941 19.8913 563.101 -19.1994 192.455
lowerback -7.02376 5.90566 -0.822587
upperback -13.5474 6.4049 1.0028
thorax -10.8159 2.58838 1.50457
lowerneck -15.1344 -1.75429 -2.56786
upperneck 22.9944 -4.6161 8.09328
head 10.0772 -1.72714 2.62479
rclavicle 1.71452e-014 -1.59028e-015
rhumerus 117.157 -63.0497 241.686
rradius 11.314
rwrist 88.4766
rhand 6.70927 6.0856
rfingers 7.12502
rthumb 31.9989 -21.1206
lclavicle 1.71452e-014 -1.59028e-015
lhumerus -11.5762 16.5335 -10.578
lradius 22.9446
lwrist -25.7247
lhand 8.33087 25.7022
lfingers 7.12502
lthumb 33.5416 52.5866
rfemur 5.46027 9.08243 22.1367
rtibia 9.37713
rfoot -31.2317 -37.9591
rtoes 56.5087
lfemur -54.7146 20.0425 -26.6121
ltibia 41.3568
lfoot -40.1398 29.2067
ltoes 22.3452
356
root -5.81121 16.9707 19.9418 563.7 -18.5024 192.589
lowerback -7.21782 5.95466 -0.888502
upperback -13.8706 6.37608 0.830479
thorax -11.0698 2.53267 1.36797
lowerneck -15.1319 -1.7231 -2.5489
upperneck 22.8742 -4.53189 8.00311
head 10.0252 -1.69559 2.59941
rclavicle -5.61815e-014 -3.49861e-014
rhumerus 113.051 -62.839 247.317
rradius 11.4777
rwrist 85.2137
rhand 6.71157 6.11744
rfingers 7.12502
rthumb 32.0011 -21.0883
lclavicle -5.61815e-014 -3.49861e-014
lhumerus -10.5962 17.0068 -11.5195
lradius 23.0536
lwrist -25.8762
lhand 7.68794 25.4792
lfingers 7.12502
lthumb 32.9303 52.4941
rfemur 5.80299 9.69976 22.8054
rtibia 8.2397
rfoot -26.6775 -40.0126
rtoes 53.5653
lfemur -56.2217 20.804 -27.1746
ltibia 42.062
lfoot -39.8398 29.291
ltoes 21.623
357
root -5.77507 16.9458 19.986 564.314 -17.9104 192.577
lowerback -7.49954 5.88104 -1.14619
upperback -14.1326 6.18985 0.760762
thorax -11.2347 2.4281 1.45835
lowerneck -15.1514 -1.61704 -2.63376
upperneck 22.8186 -4.31412 7.89219
head 9.99337 -1.61153 2.60326
rclavicle -2.85753e-014 -1.06549e-013
rhumerus 109.584 -62.1284 252.391
rradius 11.4104
rwrist 82.1367
rhand 6.49951 5.93339
rfingers 7.12502
rthumb 31.7992 -21.3126
lclavicle -2.85753e-014 -1.06549e-013
lhumerus -9.91807 16.6198 -12.4523
lradius 23.3027
lwrist -25.0505
lhand 6.86082 25.6544
lfingers 7.12502
lthumb 32.1432 52.8315
rfemur 6.47676 10.1483 23.4218
rtibia 6.58432
rfoot -20.9076 -41.8691
rtoes 49.4935
lfemur -57.7981 21.6864 -28.0216
ltibia 42.8575
lfoot -39.1717 29.3855
ltoes 20.3845
358
root -5.73622 16.9144 20.0262 564.98 -17.5968 192.514
lowerback -7.7384 5.79829 -1.31166
upperback -14.5044 5.96241 0.546363
thorax -11.5242 2.27572 1.33859
lowerneck -15.1747 -1.58079 -2.78766
upperneck 22.8934 -4.2832 8.06122
head 10.0296 -1.59471 2.69409
rclavicle -4.62174e-015 2.62396e-014
rhumerus 105.978 -61.7005 257.585
rradius 11.3695
rwrist 78.3932
rhand 6.08369 5.52447
rfingers 7.12502
rthumb 31.4031 -21.7994
lclavicle -4.62174e-015 2.62396e-014
lhumerus -8.87011 15.9407 -13.2942
lradius 23.4893
lwrist -23.8904
lhand 5.59951 25.7033
lfingers 7.12502
lthumb 30.9416 53.1159
rfemur 7.80826 10.2776 24.1824
rtibia 3.71107
rfoot -16.3544 -42.9039
rtoes 46.0586
lfemur -59.453 22.2947 -28.7971
ltibia 43.8055
lfoot -39.0595 28.7109
ltoes 20.798
359
root -5.69425 16.8785 20.0619 565.414 -17.4248 192.403
lowerback -8.17469 5.62975 -1.52472
upperback -14.512 5.69697 0.388504
thorax -11.2724 2.14744 1.32612
lowerneck -15.3501 -1.61708 -2.96031
upperneck 22.647 -4.25374 8.12347
head 9.97793 -1.57841 2.74666
rclavicle 3.12589e-014 -2.94201e-014
rhumerus 105.287 -60.6619 259.609
rradius 11.5102
rwrist 75.8017
rhand 5.57155 5.09594
rfingers 7.12502
rthumb 30.915 -22.3217
lclavicle 3.12589e-014 -2.94201e-014
lhumerus -7.82422 16.2643 -14.0137
lradius 23.5856
lwrist -23.1396
lhand 4.25434 25.7431
lfingers 7.12502
lthumb 29.6585 53.3917
rfemur 9.92783 10.1786 25.0943
rtibia -2.8625e-014
rfoot -12.6964 -43.4662
rtoes 43.4343
lfemur -60.7372 22.663 -29.2556
ltibia 44.8496
lfoot -39.2833 27.6183
ltoes 21.8415
